<?xml version="1.0" encoding="utf-8"?>
<svg viewBox="0 0 809.055 152.768" xmlns="http://www.w3.org/2000/svg">
  <g id="svgg" transform="matrix(1, 0, 0, 1, -81.739128, -23.112444)">
    <path id="path0" d="M 438.731 59.532 C 438.53 59.73 438.367 76.193 438.367 96.113 L 438.367 132.332 L 440.669 132.427 C 441.934 132.48 443.602 132.537 444.377 132.555 L 445.783 132.587 L 446.074 115.457 C 446.389 96.92 446.367 97.064 449.48 92.359 C 453.107 86.879 463.103 84.999 469.346 88.622 C 476.081 92.533 476.718 94.881 476.718 115.845 L 476.718 132.183 L 480.153 132.504 C 482.041 132.681 483.783 132.628 484.023 132.389 C 484.794 131.618 484.225 96.007 483.413 94.237 C 483.026 93.394 482.362 91.898 481.934 90.913 C 480.943 88.624 475.455 83.133 473.131 82.107 C 468.912 80.242 467.64 79.975 462.908 79.975 C 459.217 79.975 457.469 80.21 455.969 80.905 C 453.28 82.151 449.076 84.929 447.887 86.243 C 446.221 88.09 446.039 87.047 446.001 75.416 C 445.978 69.175 445.807 63.033 445.617 61.769 L 445.27 59.467 L 442.183 59.318 C 440.484 59.236 438.929 59.331 438.731 59.532 M 726.371 59.55 C 725.881 59.748 725.732 63.163 725.732 74.191 L 725.732 88.574 L 723.304 86.224 C 710.014 73.356 686.962 80.687 682.819 99.094 C 681.511 104.902 682.426 114.176 684.811 119.291 C 691.838 134.368 714.683 138.549 723.691 126.406 C 725.502 123.966 725.732 124.194 725.732 128.421 L 725.732 132.183 L 729.433 132.492 C 731.47 132.663 733.322 132.616 733.55 132.387 C 734.393 131.543 733.747 60.253 732.89 59.712 C 732.096 59.21 727.497 59.096 726.371 59.55 M 385.446 63.296 C 357.631 68.243 347.408 103.213 367.805 123.643 C 374.834 130.683 381.398 133.293 392.094 133.293 C 410.941 133.293 424.069 121.767 426.84 102.792 C 430.337 78.839 409.554 59.008 385.446 63.296 M 869.103 71.101 C 869.302 75.107 869.672 84.139 869.922 91.169 C 870.172 98.199 870.54 106.082 870.74 108.682 L 871.102 113.412 L 873.552 113.412 C 874.899 113.412 876.128 113.207 876.283 112.955 C 876.551 112.522 877.293 95.002 877.947 73.656 L 878.248 63.813 L 873.497 63.813 L 868.745 63.813 L 869.103 71.101 M 399.869 71.307 C 414.06 74.713 422.515 90.161 418.668 105.651 C 412.358 131.047 375.908 133.34 366.771 108.915 C 364.573 103.042 364.373 92.911 366.357 87.949 C 370.58 77.387 377.991 71.737 389.536 70.276 C 391.784 69.991 396.246 70.438 399.869 71.307 M 539.865 80.028 C 538.742 80.147 537.602 80.459 537.335 80.722 C 537.068 80.984 536.534 81.198 536.149 81.198 C 535.239 81.198 531.26 83.941 529.652 85.676 C 528.082 87.369 527.798 87.08 527.401 83.392 L 527.083 80.432 L 523.631 80.281 L 520.18 80.129 L 520.18 106.23 L 520.18 132.332 L 522.48 132.427 C 523.747 132.48 525.414 132.537 526.188 132.555 L 527.595 132.587 L 527.849 114.434 C 528.129 94.662 528.026 95.362 531.281 91.079 C 535.658 85.319 545.801 85.168 551.124 90.782 C 554.696 94.546 554.678 94.435 554.856 114.235 L 555.019 132.19 L 558.377 132.504 C 560.225 132.675 561.935 132.694 562.178 132.544 C 562.422 132.394 562.628 124.863 562.638 115.809 C 562.66 96.824 563.012 94.438 566.323 90.923 C 571.914 84.984 582.114 85.351 586.928 91.66 C 589.573 95.13 589.672 95.964 589.697 114.744 L 589.719 132.183 L 593.049 132.494 C 598.333 132.986 597.9 134.437 597.9 116.215 C 597.9 94.3 597.253 91.291 591.271 85.403 C 583.29 77.546 571.408 77.947 563.4 86.341 C 560.11 89.79 559.973 89.844 558.846 88.123 C 554.985 82.229 547.84 79.181 539.865 80.028 M 766.125 79.978 C 750.823 81.724 741.177 97.328 745.143 113.922 C 751.44 140.272 789.306 139.885 795.311 113.412 C 799.712 94.004 785.536 77.764 766.125 79.978 M 825.185 79.992 C 802.26 82.191 795.389 114.974 814.97 128.73 C 824.081 135.131 839.025 133.473 845.2 125.378 C 847.127 122.849 847.441 123.563 847.21 129.931 C 846.755 142.368 842.958 146.495 831.468 147.031 C 824.456 147.361 816.237 144.565 816.237 141.851 C 816.237 139.963 814.215 138.978 810.337 138.978 C 805.924 138.978 805.859 139.086 808.02 142.852 C 816.525 157.68 844.535 158.34 852.168 143.893 C 854.834 138.85 854.772 139.601 854.964 109.209 L 855.144 80.718 L 853.936 80.415 C 853.272 80.249 851.593 80.184 850.205 80.271 L 847.682 80.432 L 847.544 83.754 C 847.335 88.667 847.23 88.744 844.491 85.961 C 842.403 83.839 840.901 82.886 836.157 80.669 C 835.135 80.191 827.817 79.74 825.185 79.992 M 337.126 85.525 L 337.126 90.913 L 342.002 90.913 L 346.877 90.913 L 346.73 85.673 L 346.585 80.432 L 341.857 80.285 L 337.126 80.137 L 337.126 85.525 M 605.059 80.845 C 605.059 81.428 612.854 100.913 615.582 107.148 C 615.981 108.061 616.653 109.593 617.075 110.548 C 617.497 111.506 617.843 112.428 617.843 112.6 C 617.843 112.771 618.302 113.945 618.865 115.208 C 619.428 116.469 620.348 118.534 620.911 119.797 C 621.473 121.059 621.933 122.234 621.933 122.405 C 621.933 122.714 622.325 123.647 624.432 128.362 C 625.841 131.521 625.804 132.181 623.979 136.167 C 623.136 138.008 622.444 139.607 622.444 139.72 C 622.444 139.834 621.612 141.726 620.594 143.926 C 619.578 146.127 618.209 149.134 617.555 150.61 L 616.365 153.295 L 620.558 153.295 C 624.642 153.295 624.768 153.259 625.365 151.89 C 625.704 151.115 627.508 146.802 629.376 142.302 C 631.243 137.802 633.184 133.201 633.69 132.075 C 634.195 130.951 635.234 128.535 635.995 126.706 C 636.757 124.879 637.809 122.433 638.333 121.272 C 638.859 120.11 640.357 116.545 641.664 113.346 C 642.973 110.149 644.501 106.497 645.063 105.231 C 650.274 93.486 654.658 82.343 654.658 80.84 C 654.658 80.289 653.857 80.165 651.045 80.281 C 646.788 80.459 647.114 80.076 643.929 88.613 C 643.717 89.174 643.294 90.21 642.984 90.913 C 642.674 91.616 640.019 98.174 637.085 105.487 C 631.146 120.276 630.177 122.384 629.597 121.765 C 629.171 121.309 628.161 118.878 625.49 111.878 C 623.992 107.952 623.221 106.028 621.906 102.929 C 621.668 102.367 620.029 98.226 618.265 93.726 C 616.502 89.227 614.465 84.393 613.741 82.988 L 612.424 80.432 L 608.743 80.281 C 605.86 80.163 605.059 80.286 605.059 80.845 M 716.534 88.617 C 722.636 91.709 726.307 98.426 726.307 106.509 C 726.307 131.023 694.154 134.158 689.991 110.05 C 687.205 93.912 702.544 81.527 716.534 88.617 M 774.052 87.13 C 789.895 89.782 793.596 115.921 779.282 124.078 C 765.111 132.152 749.542 119.95 752.289 102.923 C 753.912 92.864 762.41 85.338 770.729 86.594 C 771.432 86.701 772.927 86.942 774.052 87.13 M 833.366 87.092 C 851.416 89.985 853.119 118.281 835.627 124.675 C 821.311 129.908 807.796 116.173 811.87 100.532 C 814.122 91.891 822.732 85.381 830.297 86.6 C 830.86 86.69 832.241 86.913 833.366 87.092 M 339.528 99.963 C 339.39 100.189 339.014 107.851 338.69 116.992 C 338.365 126.132 337.888 137.038 337.63 141.23 C 337.066 150.414 336.68 149.717 342.342 149.717 L 346.989 149.717 L 346.679 142.941 C 346.509 139.216 346.11 129.379 345.792 121.081 C 345.475 112.787 345.065 104.618 344.878 102.929 L 344.54 99.862 L 342.158 99.709 C 340.848 99.623 339.664 99.739 339.528 99.963 M 868.702 122.914 C 868.532 123.358 868.391 125.63 868.391 127.961 L 868.391 132.199 L 872.981 132.559 C 878.745 133.008 878.618 133.114 878.618 127.997 C 878.618 121.9 878.793 122.104 873.505 122.104 C 869.879 122.104 868.952 122.26 868.702 122.914" stroke="none" fill="#4897af" fill-rule="evenodd" style=""/>
    <path id="path1" d="M254.620 27.656 C 238.613 30.052,225.901 38.830,219.124 52.167 L 217.628 55.110 197.339 55.195 L 177.049 55.279 176.200 53.723 C 159.190 22.515,109.384 25.227,92.847 58.262 C 87.632 68.679,86.869 83.479,90.943 95.176 C 91.639 97.173,91.901 97.719,93.398 100.283 L 93.993 101.303 92.647 104.045 C 81.072 127.619,93.604 156.743,120.413 168.568 C 121.683 169.128,124.784 170.088,127.228 170.678 C 146.751 175.390,168.469 165.444,177.125 147.826 L 178.729 144.563 198.435 144.563 L 218.141 144.563 218.963 146.185 C 223.722 155.575,233.055 163.896,243.009 167.621 C 243.818 167.924,244.775 168.291,245.135 168.436 C 246.902 169.149,250.916 170.092,254.821 170.712 C 257.650 171.160,267.032 171.153,269.791 170.699 C 273.661 170.062,277.525 169.158,279.477 168.431 C 292.189 163.698,301.524 155.700,306.953 144.890 C 309.123 140.570,309.799 138.639,310.960 133.448 C 311.662 130.308,311.758 118.547,311.104 115.781 C 310.870 114.791,310.521 113.320,310.329 112.510 C 309.344 108.363,308.244 105.337,306.158 101.036 C 304.542 97.703,304.545 98.152,306.109 94.812 C 308.040 90.685,309.195 86.974,310.423 80.948 C 310.924 78.493,310.952 66.998,310.462 65.413 C 310.267 64.783,309.931 63.459,309.715 62.469 C 304.708 39.546,279.903 23.872,254.620 27.656 M267.702 47.254 C 277.750 49.109,284.242 53.540,288.799 61.654 C 290.979 65.534,291.983 74.395,290.772 79.060 C 288.871 86.378,286.334 91.166,281.707 96.164 L 279.877 98.141 282.154 100.501 C 291.420 110.111,294.640 124.038,290.076 134.768 C 280.410 157.495,242.883 156.926,234.996 133.933 C 234.170 131.525,233.524 128.260,233.524 126.492 L 233.524 124.939 199.494 124.939 L 165.464 124.939 164.215 127.637 C 163.528 129.121,162.782 130.924,162.556 131.643 C 159.047 142.837,153.431 148.604,142.927 151.800 C 135.507 154.058,124.187 150.299,117.116 143.227 C 105.056 131.167,104.987 114.550,116.953 103.751 L 119.112 101.802 118.546 100.696 C 117.839 99.314,116.677 97.829,113.208 93.878 C 108.663 88.699,107.261 83.866,108.007 75.948 C 109.888 55.976,133.135 44.981,151.583 55.337 C 156.563 58.133,160.766 64.709,162.204 71.954 L 162.756 74.734 197.042 74.818 C 223.248 74.881,231.438 74.809,231.798 74.510 C 232.985 73.525,234.388 69.867,235.349 65.249 C 236.836 58.113,242.286 52.113,250.155 48.950 C 251.833 48.275,252.830 48.005,256.909 47.120 C 259.027 46.660,264.879 46.733,267.702 47.254 " stroke="none" fill="#f4945c" fill-rule="evenodd"/>
    <path id="path3" d="M 437.981 95.899 L 438.113 132.587 L 440.54 132.743 L 442.971 132.899 L 442.971 134.916 L 442.971 136.933 L 446.774 136.933 L 450.578 136.933 L 450.737 119.676 C 450.892 102.832 450.924 102.362 452.078 100.045 C 455.313 93.537 462.572 89.942 469.502 91.414 C 475.715 92.731 476.206 94.561 476.206 116.43 L 476.206 132.842 L 478.508 132.842 L 480.807 132.842 L 480.807 134.887 L 480.807 136.933 L 484.939 136.933 L 489.07 136.933 L 488.855 119.165 C 488.595 97.535 488.453 96.902 482.21 89.636 C 473.313 79.283 464.11 76.418 454.475 81.007 C 452.787 81.811 451.239 82.545 451.035 82.639 C 450.831 82.733 450.6 78.593 450.523 73.439 L 450.384 64.068 L 448.467 63.91 C 446.564 63.753 446.548 63.736 446.548 61.481 C 446.548 59.923 446.333 59.211 445.862 59.211 C 445.33 59.211 445.266 59.752 445.577 61.64 C 445.797 62.975 445.991 69.175 446.007 75.416 C 446.039 87.045 446.221 88.09 447.887 86.243 C 455.525 77.787 469.682 77.677 478.038 86.011 C 479.753 87.722 481.507 89.93 481.934 90.913 C 482.362 91.898 483.026 93.394 483.413 94.237 C 484.225 96.007 484.794 131.618 484.023 132.389 C 483.783 132.628 482.041 132.681 480.153 132.504 L 476.718 132.183 L 476.718 115.845 C 476.718 94.881 476.081 92.533 469.346 88.622 C 463.103 84.999 453.107 86.879 449.48 92.359 C 446.367 97.064 446.389 96.92 446.074 115.457 L 445.783 132.587 L 444.377 132.555 C 443.602 132.537 441.931 132.48 440.662 132.427 L 438.355 132.332 L 438.49 95.77 C 438.564 75.665 438.449 59.211 438.237 59.211 C 438.024 59.211 437.908 75.72 437.981 95.899 M 732.89 59.712 C 733.747 60.253 734.393 131.543 733.55 132.387 C 733.322 132.616 731.47 132.663 729.433 132.492 L 725.732 132.183 L 725.732 128.421 C 725.732 124.194 725.502 123.966 723.691 126.406 C 715.895 136.916 697.356 135.505 687.327 123.639 C 685.876 121.921 683.293 116.558 683.285 115.239 C 683.279 114.656 683.033 113.834 682.734 113.412 C 681.816 112.11 682.734 116.385 683.935 119.001 C 691.293 135.02 712.332 142.804 725.001 134.195 C 728.202 132.021 730.334 132.297 730.334 134.887 L 730.334 136.933 L 734.424 136.933 L 738.515 136.933 L 738.515 100.403 L 738.515 63.873 L 736.342 63.715 C 734.18 63.559 734.167 63.548 734.011 61.384 C 733.892 59.742 733.644 59.214 732.989 59.219 C 732.244 59.226 732.23 59.295 732.89 59.712 M 390.047 62.282 C 388.877 62.578 389.348 62.685 392.05 62.73 C 393.996 62.763 395.49 62.707 395.374 62.603 C 394.843 62.135 391.436 61.929 390.047 62.282 M 382.634 63.322 C 382.1 63.681 382.719 63.736 384.678 63.501 C 386.226 63.315 387.586 63.08 387.704 62.976 C 388.22 62.527 383.321 62.86 382.634 63.322 M 398.485 63.321 C 424.893 68.017 436.339 99.52 419.397 120.882 C 409.567 133.275 390.589 137.103 375.62 129.712 C 355.254 119.652 350.891 87.561 367.787 72.086 C 371.206 68.955 377.835 64.844 379.486 64.829 C 379.953 64.823 380.677 64.574 381.099 64.277 C 382.797 63.069 378.688 64.411 375.025 66.258 C 367.85 69.874 360.356 78.651 358.558 85.544 C 358.338 86.388 357.804 88.459 357.374 90.147 C 356.371 94.088 356.371 102.057 357.374 105.999 C 357.804 107.685 358.334 109.759 358.554 110.604 C 360.37 117.656 371.146 129.517 379.821 134.016 C 408.123 148.689 438.385 123.173 430.225 91.518 C 426.883 78.56 408.925 62.517 398.133 62.851 L 396.183 62.911 L 398.485 63.321 M 868.611 63.468 C 868.46 63.862 868.421 65.538 868.522 67.193 L 868.71 70.204 L 868.807 67.009 L 868.903 63.813 L 873.575 63.813 L 878.248 63.813 L 877.947 73.656 C 877.293 95.002 876.551 112.522 876.283 112.955 C 876.128 113.207 874.901 113.412 873.556 113.412 L 871.113 113.412 L 870.513 104.848 C 870.182 100.137 869.887 93.406 869.858 89.891 C 869.829 86.376 869.64 81.198 869.438 78.386 L 869.071 73.274 L 868.981 77.363 C 868.839 83.891 870.016 111.507 870.491 112.771 C 870.841 113.704 871.316 113.922 872.981 113.922 C 874.884 113.922 875.04 114.029 875.046 115.329 C 875.058 117.635 875.653 118.092 878.412 117.918 L 880.918 117.758 L 881.264 112.39 C 881.545 108.007 882.257 89.688 882.855 71.484 L 882.964 68.16 L 880.918 67.904 C 878.922 67.655 878.867 67.594 878.618 65.348 L 878.362 63.046 L 873.624 62.899 C 869.934 62.784 868.825 62.91 868.611 63.468 M 389.536 70.276 C 377.991 71.737 370.58 77.387 366.357 87.949 C 364.373 92.911 364.573 103.042 366.771 108.915 C 374.876 130.579 406.33 132.066 416.607 111.272 C 417.661 109.139 418.424 106.964 418.302 106.44 C 418.133 105.716 417.989 105.857 417.708 107.021 C 416.736 111.034 413.034 116.606 409.325 119.634 C 398.228 128.697 377.457 126.583 372.258 115.862 C 362.07 94.847 378.313 71.472 400.686 74.948 C 410.496 76.474 413.264 78.716 417.867 88.869 C 418.433 90.114 418.44 90.108 418.158 88.613 C 416.174 78.121 401.556 68.757 389.536 70.276 M 537.195 80.062 C 535.726 80.56 533.399 81.825 532.025 82.873 C 528.856 85.29 528.361 85.272 528.361 82.75 C 528.361 80.151 527.332 79.566 523.108 79.768 L 519.924 79.92 L 519.791 106.38 L 519.658 132.842 L 521.964 132.842 L 524.27 132.842 L 524.27 134.887 L 524.27 136.933 L 528.061 136.933 L 531.848 136.933 L 532.03 119.42 C 532.203 102.448 532.245 101.829 533.38 99.35 C 537.809 89.683 550.968 87.842 553.747 96.502 C 554.196 97.909 554.343 98.06 554.385 97.158 C 554.451 95.697 552.889 92.642 551.124 90.782 C 545.801 85.168 535.658 85.319 531.281 91.079 C 528.026 95.362 528.129 94.662 527.849 114.434 L 527.595 132.587 L 526.188 132.555 C 525.414 132.537 523.747 132.48 522.48 132.427 L 520.18 132.332 L 520.18 106.23 L 520.18 80.129 L 523.631 80.281 L 527.083 80.432 L 527.401 83.392 C 527.798 87.08 528.082 87.369 529.652 85.676 C 531.26 83.941 535.239 81.198 536.149 81.198 C 536.534 81.198 537.113 80.934 537.438 80.609 C 538.657 79.391 547.721 79.893 550.858 81.353 C 553.654 82.652 557.27 85.717 558.846 88.123 C 559.973 89.844 560.11 89.79 563.4 86.341 C 571.408 77.947 583.29 77.546 591.271 85.403 C 597.253 91.291 597.9 94.3 597.9 116.215 C 597.9 134.385 598.327 132.909 593.178 132.635 C 591.417 132.541 590.953 132.563 592.149 132.682 C 594.302 132.896 594.322 132.917 594.322 134.916 L 594.322 136.933 L 598.19 136.933 L 602.059 136.933 L 601.898 118.143 L 601.735 99.35 L 600.135 95.971 C 592.074 78.958 574.651 74.014 563.346 85.532 L 560.237 88.7 L 557.666 85.845 C 552.395 79.992 544.211 77.679 537.195 80.062 M 700.422 79.985 C 688.856 83.427 681.112 94.096 681.278 106.36 C 681.354 112.058 682.152 112.536 682.21 106.917 C 682.383 90.204 691.9 80.004 707.325 80.004 C 714.76 80.004 718.306 81.385 723.304 86.224 C 725.022 87.886 725.732 88.318 725.732 87.698 C 725.732 87.217 725.539 86.881 725.303 86.951 C 725.068 87.022 724.286 86.388 723.567 85.544 C 719.118 80.328 708.135 77.69 700.422 79.985 M 762.804 79.954 C 756.893 81.784 751.821 85.336 748.23 90.154 C 747.171 91.576 745.578 95.08 745.863 95.363 C 745.993 95.493 746.511 94.717 747.016 93.64 C 756.788 72.784 789.735 76.344 795.134 98.84 C 799.606 117.473 788.007 133.354 769.924 133.354 C 752.466 133.354 740.615 117.04 745.107 99.195 C 745.482 97.703 745.66 96.354 745.501 96.195 C 745.342 96.036 745.078 96.566 744.914 97.373 C 744.75 98.18 744.393 99.547 744.122 100.408 C 737.906 120.181 762.513 143.184 783.001 136.755 C 800.925 131.127 806.776 105.646 793.383 91.541 C 791.853 89.931 790.215 88.149 789.74 87.583 C 784.185 80.938 771.358 77.305 762.804 79.954 M 821.862 79.925 C 803.953 84.821 796.744 107.707 808.27 123.073 C 817.893 135.902 833.209 140.416 845.518 134.05 C 846.726 133.426 847.007 133.403 846.804 133.942 C 846.66 134.321 846.16 135.959 845.691 137.58 C 844.677 141.079 842.54 143.494 838.946 145.2 C 835.861 146.665 824.699 146.896 822.374 145.546 C 818.329 143.198 817.186 142.305 816.212 140.726 C 815.616 139.765 814.909 138.978 814.641 138.978 C 814.371 138.978 814.62 139.483 815.194 140.097 C 815.768 140.712 816.237 141.502 816.237 141.851 C 816.237 144.565 824.456 147.361 831.468 147.031 C 842.958 146.495 846.755 142.368 847.21 129.931 C 847.441 123.563 847.127 122.849 845.2 125.378 C 841.052 130.813 832.432 133.682 824.343 132.32 C 799.021 128.048 795.75 90.263 819.911 81.13 C 822.982 79.968 833.622 79.542 835.762 80.495 C 840.349 82.537 842.359 83.797 844.491 85.961 C 847.23 88.744 847.335 88.667 847.544 83.754 L 847.682 80.432 L 850.205 80.271 C 851.593 80.184 853.272 80.249 853.936 80.415 L 855.144 80.718 L 854.964 109.209 C 854.772 139.601 854.834 138.85 852.168 143.893 C 844.3 158.787 815.353 157.513 807.566 141.931 C 806.711 140.217 806.011 139.191 806.011 139.649 C 806.011 140.458 807.189 142.804 808.929 145.461 C 809.947 147.015 818.788 154.536 820.849 155.601 C 832.987 161.878 850.806 158.498 856.462 148.845 C 859.68 143.356 859.699 143.144 859.699 112.599 L 859.699 84.778 L 857.653 84.778 L 855.609 84.778 L 855.609 82.486 C 855.609 79.788 855.066 79.514 850.218 79.763 L 847.171 79.92 L 846.917 83.731 L 846.66 87.541 L 845.375 86.031 C 844.666 85.2 843.286 83.942 842.306 83.234 C 840.598 81.998 839.838 81.602 836.434 80.17 C 834.05 79.166 825.18 79.019 821.862 79.925 M 336.835 80.34 C 336.693 80.712 336.651 83.299 336.744 86.094 L 336.911 91.169 L 337.019 85.654 L 337.126 80.137 L 341.857 80.285 L 346.585 80.432 L 346.73 85.673 L 346.877 90.913 L 344.171 90.913 L 341.465 90.913 L 341.65 93.233 L 341.834 95.552 L 346.766 95.406 L 351.699 95.26 L 351.851 91.17 C 352.062 85.456 351.854 84.873 349.523 84.68 C 347.689 84.528 347.602 84.435 347.443 82.483 C 347.351 81.363 347.005 80.272 346.675 80.064 C 345.567 79.357 337.121 79.596 336.835 80.34 M 604.22 80.438 C 604.056 80.863 604.135 81.497 604.397 81.844 C 604.655 82.193 605.51 84.088 606.293 86.056 C 608.46 91.507 608.479 91.552 609.355 93.547 C 609.804 94.575 610.174 95.554 610.174 95.727 C 610.174 95.897 610.633 97.072 611.196 98.333 C 611.759 99.596 612.677 101.662 613.24 102.925 C 613.803 104.186 614.263 105.35 614.263 105.509 C 614.263 105.668 614.698 106.764 615.232 107.944 C 615.765 109.124 617.853 114.115 619.871 119.037 C 621.891 123.959 623.87 128.652 624.271 129.468 C 625.269 131.499 625.201 132.238 623.723 135.301 C 623.019 136.757 622.444 138.073 622.444 138.222 C 622.444 138.37 621.449 140.615 620.235 143.209 C 619.02 145.803 617.717 148.732 617.338 149.717 C 616.959 150.7 616.437 151.783 616.18 152.122 C 615.31 153.263 616.35 153.806 619.406 153.806 C 622.336 153.806 623.498 154.63 621.933 155.596 C 619.911 156.845 621.495 157.898 625.385 157.888 L 629.348 157.88 L 630.582 154.948 C 631.259 153.335 632.213 151.097 632.701 149.971 C 633.19 148.846 634.208 146.43 634.969 144.602 C 635.727 142.775 636.699 140.473 637.127 139.491 C 638.459 136.425 639.174 134.746 640.602 131.307 C 641.36 129.48 642.396 127.064 642.902 125.94 C 643.408 124.815 645.251 120.442 646.997 116.224 C 649.931 109.133 651.068 106.452 652.855 102.418 C 653.227 101.575 654.383 98.815 655.42 96.283 C 656.46 93.752 657.862 90.466 658.54 88.981 C 660.316 85.089 660.223 84.778 657.3 84.778 C 654.217 84.778 654.056 84.608 654.995 82.361 C 655.987 79.985 655.504 79.682 650.713 79.672 C 647.222 79.665 644.938 80.852 646.139 82.053 C 646.279 82.194 646.651 81.829 646.964 81.242 C 647.666 79.932 654.658 79.588 654.658 80.862 C 654.658 82.343 650.239 93.566 645.063 105.231 C 644.501 106.497 642.973 110.149 641.664 113.346 C 640.357 116.545 638.859 120.11 638.333 121.272 C 637.809 122.433 636.757 124.879 635.995 126.706 C 635.234 128.535 634.195 130.951 633.69 132.075 C 633.184 133.201 631.243 137.802 629.376 142.302 C 627.508 146.802 625.704 151.115 625.365 151.89 C 624.768 153.259 624.642 153.295 620.558 153.295 L 616.365 153.295 L 617.555 150.61 C 618.209 149.134 619.578 146.127 620.594 143.926 C 621.612 141.726 622.444 139.834 622.444 139.72 C 622.444 139.607 623.136 138.008 623.979 136.167 C 625.804 132.181 625.841 131.521 624.432 128.362 C 622.325 123.647 621.933 122.714 621.933 122.405 C 621.933 122.234 621.473 121.059 620.911 119.797 C 620.348 118.534 619.428 116.469 618.865 115.208 C 618.302 113.945 617.843 112.771 617.843 112.6 C 617.843 112.428 617.497 111.506 617.075 110.548 C 616.653 109.593 615.981 108.061 615.582 107.148 C 612.854 100.913 605.059 81.428 605.059 80.845 C 605.059 79.487 612.315 80.166 613.023 81.591 C 613.833 83.22 614.263 83.558 614.263 82.562 C 614.263 79.974 605.138 78.045 604.22 80.438 M 644.734 84.915 C 642.758 89.611 642.518 90.208 641.901 91.937 C 641.087 94.208 640.65 95.307 639.607 97.678 C 639.145 98.726 638.441 100.515 638.04 101.652 C 637.639 102.788 636.933 104.577 636.472 105.625 C 634.92 109.158 634.751 109.568 633.158 113.653 C 632.284 115.894 631.436 117.945 631.271 118.211 C 631.106 118.476 629.273 114.342 627.197 109.023 C 617.227 83.48 617.793 84.778 616.602 84.778 C 615.991 84.778 615.214 84.501 614.877 84.164 C 614.131 83.418 614.077 83.956 614.776 85.168 C 615.057 85.656 616.679 89.624 618.382 93.981 C 620.084 98.34 621.671 102.367 621.908 102.929 C 623.296 106.217 624 107.973 625.49 111.878 C 628.161 118.878 629.171 121.309 629.597 121.765 C 630.177 122.384 631.146 120.276 637.085 105.487 C 640.019 98.174 642.674 91.616 642.984 90.913 C 643.294 90.21 643.717 89.174 643.929 88.613 C 644.138 88.051 644.717 86.61 645.218 85.412 C 645.716 84.214 646.016 83.125 645.883 82.992 C 645.75 82.858 645.233 83.725 644.734 84.915 M 574.125 86.904 C 569.463 87.758 565.401 90.448 565.996 92.291 C 566.211 92.954 566.16 93.027 565.819 92.551 C 563.726 89.642 562.62 97.734 562.62 115.93 C 562.62 124.919 562.422 132.394 562.178 132.544 C 561.935 132.694 560.213 132.674 558.351 132.501 L 554.964 132.184 L 554.822 115.256 L 554.679 98.328 L 554.559 115.585 L 554.438 132.842 L 556.74 132.842 L 559.039 132.842 L 559.039 134.887 L 559.039 136.933 L 563.131 136.933 L 567.221 136.933 L 567.221 119.822 C 567.221 97.344 568.265 94.409 577.224 91.692 C 584.153 89.589 587.666 91.491 589.012 98.072 C 589.501 100.456 589.596 100.61 589.632 99.094 C 589.757 93.905 585.125 88.146 579.99 87.106 C 579.014 86.91 577.87 86.677 577.449 86.592 C 577.027 86.507 575.53 86.648 574.125 86.904 M 704.76 87.077 C 684.739 90.484 684.688 122.362 704.698 126.233 C 712.664 127.774 720.855 123.732 724.206 116.603 C 725.405 114.054 726.185 110.597 725.272 111.878 C 724.972 112.3 724.722 113.026 724.718 113.491 C 724.691 116.179 720.028 122.12 716.567 123.876 C 706.959 128.742 696.836 125.327 695.025 116.603 C 692.405 103.986 698.486 93.579 709.754 91.399 C 714.774 90.426 720.875 91.848 722.183 94.293 C 722.542 94.965 723.028 95.516 723.261 95.516 C 723.496 95.516 723.687 95.962 723.687 96.509 C 723.687 97.054 723.892 97.627 724.139 97.782 C 724.39 97.934 724.763 98.927 724.973 99.984 C 725.181 101.042 725.458 101.615 725.589 101.255 C 726.09 99.877 723.878 95.256 721.432 92.576 C 717.079 87.803 711.433 85.941 704.76 87.077 M 766.349 87.019 C 746.937 90.886 747.303 122.69 766.802 126.258 C 787.66 130.076 797.213 98.094 778.087 88.474 C 776.303 87.575 774.973 87.236 770.729 86.594 C 770.025 86.489 768.055 86.68 766.349 87.019 M 825.951 87.037 C 804.172 90.991 807.345 125.684 829.487 125.684 C 851.389 125.684 854.921 90.547 833.366 87.092 C 832.241 86.913 830.86 86.69 830.297 86.6 C 829.734 86.509 827.78 86.706 825.951 87.037 M 534.165 90.161 C 533.849 90.985 531.941 92.229 531.941 91.61 C 531.941 91.09 533.557 89.379 534.049 89.379 C 534.278 89.379 534.329 89.732 534.165 90.161 M 418.674 98.108 C 418.674 102.017 418.832 104.816 419.025 104.329 C 419.504 103.121 419.527 92.341 419.054 91.595 C 418.844 91.266 418.674 94.197 418.674 98.108 M 780.498 91.933 C 790.955 94.9 789.579 117.776 778.581 123.739 C 765.681 130.736 754.4 122.243 756.97 107.47 C 759.139 94.997 768.802 88.613 780.498 91.933 M 838.99 91.673 C 850.259 94.327 849.695 117.414 838.224 123.008 C 831.462 126.305 822.302 125.581 818.69 121.463 C 815.745 118.104 815.034 107.364 817.403 102.073 C 821.196 93.608 829.736 89.494 838.99 91.673 M 339.024 99.412 C 338.823 99.613 338.704 102.098 338.759 104.932 L 338.858 110.088 L 339.142 104.976 L 339.426 99.862 L 341.982 99.862 L 344.54 99.862 L 344.878 102.929 C 345.065 104.618 345.475 112.787 345.792 121.081 C 346.11 129.379 346.509 139.216 346.679 142.941 L 346.989 149.717 L 342.342 149.717 C 336.702 149.717 337.054 150.293 337.612 141.989 C 338.218 132.974 338.683 109.497 338.162 114.18 C 337.943 116.147 337.738 121.094 337.708 125.173 C 337.678 129.25 337.372 136.34 337.03 140.928 C 336.325 150.378 336.269 150.206 340.105 150.22 C 342.197 150.227 342.312 150.303 342.223 151.632 C 342.039 154.424 341.941 154.367 346.714 154.21 L 351.187 154.063 L 351.183 148.182 C 351.178 140.723 350.005 109.943 349.592 106.38 L 349.28 103.697 L 347.324 103.697 C 345.387 103.697 345.365 103.675 345.208 101.523 L 345.052 99.35 L 342.219 99.201 C 340.66 99.118 339.224 99.213 339.024 99.412 M 725.732 106.509 C 725.732 108.994 725.86 110.897 726.016 110.741 C 726.173 110.584 726.3 108.681 726.3 106.509 C 726.3 104.337 726.173 102.432 726.016 102.276 C 725.86 102.121 725.732 104.025 725.732 106.509 M 868.106 122.253 C 867.959 122.636 867.906 125.116 867.988 127.768 L 868.136 132.587 L 870.564 132.743 L 872.993 132.899 L 872.993 134.916 L 872.993 136.933 L 878.107 136.933 L 883.219 136.933 L 883.219 131.82 L 883.219 126.706 L 881.203 126.706 L 879.186 126.706 L 879.03 124.277 L 878.874 121.849 L 873.624 121.704 C 869.565 121.589 868.313 121.715 868.106 122.253 M 878.308 122.914 C 878.829 124.271 878.652 132.249 878.095 132.595 C 877.807 132.772 875.505 132.755 872.981 132.559 L 868.391 132.199 L 868.391 127.961 C 868.391 121.906 868.219 122.104 873.505 122.104 C 877.131 122.104 878.058 122.26 878.308 122.914" stroke="none" fill="#a6d5dd" fill-rule="evenodd" style=""/>
  </g>
</svg>