<svg xmlns="http://www.w3.org/2000/svg" xmlns:xlink="http://www.w3.org/1999/xlink" id="svg" version="1.1" width="400" height="326.95652173913044" viewBox="0, 0, 400,326.95652173913044"><g id="svgg"><path id="path0" d="M91.810 194.481 C 91.682 194.608,91.578 205.138,91.578 217.880 L 91.578 241.047 93.050 241.108 C 93.859 241.142,94.926 241.178,95.421 241.190 L 96.321 241.210 96.507 230.253 C 96.709 218.396,96.695 218.488,98.686 215.479 C 101.006 211.974,107.400 210.771,111.393 213.089 C 115.701 215.590,116.108 217.092,116.108 230.502 L 116.108 240.952 118.305 241.157 C 119.513 241.270,120.627 241.237,120.781 241.084 C 121.274 240.591,120.910 217.812,120.391 216.680 C 120.143 216.141,119.718 215.184,119.445 214.554 C 118.811 213.090,115.300 209.578,113.814 208.921 C 111.115 207.728,110.302 207.558,107.275 207.558 C 104.914 207.558,103.796 207.708,102.836 208.152 C 101.116 208.949,98.427 210.726,97.667 211.567 C 96.601 212.748,96.485 212.081,96.460 204.641 C 96.446 200.650,96.336 196.721,96.215 195.912 L 95.993 194.440 94.018 194.344 C 92.931 194.292,91.937 194.353,91.810 194.481 M275.797 194.493 C 275.484 194.619,275.388 196.804,275.388 203.858 L 275.388 213.058 273.835 211.554 C 265.334 203.324,250.589 208.013,247.939 219.787 C 247.103 223.502,247.688 229.434,249.213 232.706 C 253.708 242.350,268.321 245.024,274.083 237.257 C 275.241 235.696,275.388 235.842,275.388 238.546 L 275.388 240.952 277.756 241.150 C 279.058 241.259,280.243 241.229,280.389 241.083 C 280.928 240.543,280.515 194.942,279.967 194.596 C 279.459 194.275,276.517 194.203,275.797 194.493 M57.727 196.889 C 39.935 200.053,33.396 222.421,46.443 235.490 C 50.939 239.993,55.138 241.662,61.979 241.662 C 74.035 241.662,82.432 234.290,84.204 222.152 C 86.441 206.831,73.147 194.146,57.727 196.889 M367.095 201.881 C 367.222 204.444,367.458 210.221,367.618 214.718 C 367.779 219.215,368.014 224.256,368.141 225.920 L 368.373 228.945 369.940 228.945 C 370.802 228.945,371.588 228.814,371.687 228.653 C 371.859 228.376,372.333 217.170,372.751 203.516 L 372.944 197.220 369.905 197.220 L 366.865 197.220 367.095 201.881 M66.952 202.013 C 76.030 204.192,81.438 214.073,78.977 223.981 C 74.941 240.225,51.626 241.692,45.781 226.069 C 44.375 222.312,44.248 215.832,45.517 212.658 C 48.218 205.902,52.958 202.288,60.343 201.354 C 61.781 201.172,64.635 201.457,66.952 202.013 M156.500 207.591 C 155.781 207.667,155.052 207.867,154.881 208.035 C 154.711 208.203,154.369 208.340,154.123 208.340 C 153.541 208.340,150.996 210.094,149.967 211.204 C 148.963 212.287,148.781 212.102,148.527 209.743 L 148.324 207.850 146.116 207.753 L 143.908 207.656 143.908 224.351 L 143.908 241.047 145.380 241.108 C 146.190 241.142,147.257 241.178,147.751 241.190 L 148.651 241.210 148.814 229.599 C 148.993 216.952,148.927 217.400,151.009 214.660 C 153.809 210.976,160.297 210.879,163.702 214.470 C 165.986 216.878,165.975 216.807,166.089 229.472 L 166.193 240.956 168.341 241.157 C 169.523 241.267,170.617 241.279,170.772 241.183 C 170.928 241.087,171.060 236.270,171.066 230.479 C 171.080 218.335,171.306 216.809,173.423 214.560 C 177.000 210.762,183.524 210.996,186.603 215.032 C 188.295 217.251,188.359 217.785,188.375 229.797 L 188.389 240.952 190.519 241.151 C 193.899 241.466,193.622 242.394,193.622 230.738 C 193.622 216.720,193.208 214.796,189.382 211.030 C 184.276 206.004,176.676 206.260,171.554 211.630 C 169.450 213.836,169.362 213.870,168.641 212.769 C 166.171 208.999,161.601 207.050,156.500 207.591 M301.226 207.559 C 291.437 208.676,285.267 218.657,287.804 229.272 C 291.832 246.126,316.053 245.879,319.894 228.945 C 322.709 216.531,313.642 206.144,301.226 207.559 M339.002 207.568 C 324.339 208.975,319.944 229.944,332.469 238.743 C 338.296 242.837,347.855 241.777,351.805 236.599 C 353.038 234.982,353.239 235.438,353.091 239.511 C 352.800 247.467,350.371 250.106,343.021 250.450 C 338.536 250.660,333.279 248.872,333.279 247.136 C 333.279 245.928,331.986 245.298,329.505 245.298 C 326.683 245.298,326.641 245.367,328.023 247.777 C 333.463 257.261,351.380 257.683,356.262 248.442 C 357.967 245.217,357.928 245.697,358.051 226.257 L 358.166 208.033 357.393 207.839 C 356.968 207.733,355.894 207.691,355.007 207.747 L 353.393 207.850 353.304 209.975 C 353.171 213.117,353.103 213.167,351.351 211.386 C 350.016 210.029,349.055 209.419,346.021 208.002 C 345.367 207.696,340.686 207.407,339.002 207.568 M26.819 211.108 L 26.819 214.554 29.938 214.554 L 33.056 214.554 32.963 211.202 L 32.870 207.850 29.845 207.756 L 26.819 207.661 26.819 211.108 M198.201 208.114 C 198.201 208.487,203.187 220.951,204.932 224.939 C 205.187 225.523,205.617 226.502,205.887 227.114 C 206.157 227.726,206.378 228.316,206.378 228.426 C 206.378 228.536,206.672 229.286,207.032 230.094 C 207.392 230.901,207.980 232.222,208.340 233.030 C 208.700 233.837,208.994 234.588,208.994 234.698 C 208.994 234.895,209.245 235.492,210.592 238.508 C 211.494 240.529,211.470 240.951,210.303 243.500 C 209.763 244.678,209.321 245.701,209.321 245.773 C 209.321 245.846,208.789 247.056,208.138 248.463 C 207.487 249.871,206.612 251.795,206.194 252.739 L 205.433 254.456 208.115 254.456 C 210.727 254.456,210.807 254.433,211.190 253.557 C 211.406 253.062,212.560 250.303,213.755 247.424 C 214.949 244.546,216.191 241.603,216.515 240.883 C 216.838 240.164,217.502 238.618,217.989 237.449 C 218.476 236.280,219.149 234.715,219.484 233.973 C 219.820 233.230,220.779 230.949,221.615 228.903 C 222.452 226.858,223.430 224.522,223.789 223.712 C 227.122 216.200,229.926 209.072,229.926 208.111 C 229.926 207.758,229.414 207.679,227.615 207.753 C 224.892 207.867,225.101 207.622,223.063 213.083 C 222.928 213.442,222.657 214.105,222.459 214.554 C 222.261 215.004,220.563 219.199,218.686 223.876 C 214.887 233.336,214.267 234.684,213.896 234.288 C 213.624 233.997,212.978 232.441,211.269 227.964 C 210.311 225.453,209.818 224.222,208.977 222.240 C 208.824 221.881,207.776 219.231,206.648 216.353 C 205.520 213.475,204.217 210.384,203.754 209.485 L 202.912 207.850 200.557 207.753 C 198.713 207.678,198.201 207.757,198.201 208.114 M269.505 213.085 C 273.408 215.063,275.756 219.360,275.756 224.530 C 275.756 240.210,255.190 242.215,252.527 226.795 C 250.745 216.472,260.556 208.550,269.505 213.085 M306.296 212.134 C 316.430 213.830,318.797 230.550,309.641 235.767 C 300.577 240.932,290.618 233.127,292.375 222.236 C 293.413 215.802,298.849 210.988,304.170 211.792 C 304.620 211.860,305.576 212.014,306.296 212.134 M344.235 212.110 C 355.781 213.960,356.870 232.060,345.682 236.150 C 336.525 239.497,327.880 230.711,330.486 220.706 C 331.926 215.180,337.434 211.016,342.273 211.795 C 342.633 211.853,343.516 211.995,344.235 212.110 M28.356 220.343 C 28.268 220.487,28.027 225.388,27.820 231.235 C 27.612 237.081,27.307 244.058,27.142 246.739 C 26.781 252.613,26.534 252.167,30.156 252.167 L 33.128 252.167 32.930 247.833 C 32.821 245.450,32.566 239.158,32.363 233.851 C 32.160 228.545,31.897 223.320,31.778 222.240 L 31.562 220.278 30.038 220.180 C 29.200 220.125,28.443 220.199,28.356 220.343 M366.838 235.023 C 366.729 235.307,366.639 236.760,366.639 238.251 L 366.639 240.962 369.575 241.192 C 373.262 241.480,373.181 241.547,373.181 238.274 C 373.181 234.375,373.293 234.505,369.910 234.505 C 367.591 234.505,366.998 234.605,366.838 235.023 M51.676 274.364 C 51.676 274.699,51.959 275.693,52.305 276.571 C 53.048 278.459,54.127 281.461,55.759 286.182 C 56.412 288.070,57.074 289.910,57.229 290.270 C 57.599 291.127,59.027 295.108,59.635 296.975 C 60.102 298.410,60.148 298.446,61.492 298.446 C 63.030 298.446,62.757 298.864,64.593 293.704 C 65.073 292.355,65.596 290.957,65.755 290.597 C 65.914 290.237,66.347 289.017,66.718 287.886 C 67.088 286.754,67.595 285.282,67.845 284.615 C 68.095 283.948,68.692 282.298,69.172 280.948 C 69.652 279.599,70.172 278.201,70.329 277.841 C 70.662 277.074,71.627 274.135,71.627 273.886 C 71.627 273.792,71.008 273.761,70.250 273.816 L 68.874 273.917 68.013 276.370 C 67.540 277.719,67.069 279.043,66.967 279.313 C 65.949 282.006,63.079 290.526,62.450 292.723 C 61.742 295.196,61.319 295.124,60.522 292.396 C 59.898 290.259,58.537 286.124,58.207 285.364 C 58.051 285.004,57.705 284.047,57.439 283.238 C 56.603 280.696,54.321 274.390,54.120 274.065 C 53.737 273.446,51.676 273.699,51.676 274.364 M84.280 273.964 C 84.157 274.088,84.056 279.684,84.056 286.400 L 84.056 298.610 90.760 298.610 L 97.465 298.610 97.465 297.473 L 97.465 296.337 92.150 296.247 L 86.836 296.157 86.836 291.578 L 86.836 286.999 91.823 286.909 L 96.811 286.819 96.811 285.691 L 96.811 284.563 91.823 284.473 L 86.836 284.383 86.743 280.668 C 86.620 275.770,86.284 276.043,92.457 276.043 L 97.507 276.043 97.404 274.980 L 97.302 273.917 90.903 273.828 C 87.384 273.779,84.404 273.841,84.280 273.964 M109.042 274.590 C 108.722 275.865,109.102 276.011,113.005 276.112 L 116.599 276.206 116.762 287.326 L 116.926 298.446 118.152 298.548 L 119.379 298.649 119.379 287.713 C 119.379 274.939,118.940 276.100,123.813 275.972 L 127.392 275.879 127.392 274.898 L 127.392 273.917 118.323 273.830 L 109.255 273.743 109.042 274.590 M140.135 274.157 C 140.047 274.386,140.014 279.945,140.061 286.510 L 140.147 298.446 146.852 298.446 L 153.557 298.446 153.557 297.465 L 153.557 296.484 148.510 296.393 C 142.166 296.280,142.560 296.624,142.673 291.285 L 142.764 286.999 147.833 286.836 L 152.903 286.672 152.903 285.691 L 152.903 284.710 148.487 284.630 C 142.048 284.514,142.600 284.902,142.600 280.492 C 142.600 275.827,142.268 276.082,148.510 275.970 L 153.557 275.879 153.557 274.898 L 153.557 273.917 146.926 273.828 C 141.788 273.759,140.259 273.833,140.135 274.157 M168.329 273.971 C 168.209 274.091,168.111 279.693,168.111 286.419 L 168.111 298.649 169.338 298.548 L 170.564 298.446 170.728 293.377 L 170.891 288.307 173.508 288.220 L 176.124 288.132 177.269 290.160 C 178.790 292.854,179.202 293.555,180.458 295.590 C 181.043 296.537,181.521 297.438,181.521 297.594 C 181.521 298.223,182.530 298.644,183.808 298.548 L 185.162 298.446 182.033 293.254 C 178.454 287.315,178.476 287.394,180.182 286.524 C 184.356 284.395,184.630 277.768,180.652 275.161 C 179.026 274.096,169.158 273.143,168.329 273.971 M198.528 286.182 L 198.528 298.649 199.755 298.548 L 200.981 298.446 200.981 286.182 L 200.981 273.917 199.755 273.815 L 198.528 273.714 198.528 286.182 M216.666 274.163 C 216.579 274.389,216.547 279.945,216.594 286.510 L 216.680 298.446 217.941 298.550 L 219.202 298.654 219.086 288.371 C 219.009 281.601,219.081 278.132,219.297 278.218 C 219.477 278.289,220.863 280.294,222.378 282.673 C 223.893 285.053,226.837 289.604,228.920 292.788 L 232.706 298.577 234.260 298.594 L 235.814 298.610 235.814 286.182 L 235.814 273.753 234.914 273.758 C 233.052 273.768,233.098 273.475,233.257 284.313 C 233.359 291.293,233.298 294.250,233.055 294.155 C 232.863 294.080,230.942 291.262,228.785 287.893 C 226.628 284.523,223.942 280.406,222.816 278.744 C 221.690 277.081,220.769 275.598,220.769 275.448 C 220.769 274.235,217.082 273.080,216.666 274.163 M257.241 275.572 C 256.789 276.595,256.419 277.563,256.419 277.723 C 256.419 277.883,256.289 278.269,256.130 278.582 C 255.971 278.894,255.679 279.518,255.481 279.967 C 254.997 281.066,248.242 298.360,248.242 298.500 C 248.242 299.297,250.838 298.457,251.187 297.547 C 251.971 295.506,252.239 294.834,253.109 292.723 L 253.985 290.597 258.753 290.507 C 264.380 290.400,263.847 290.061,265.760 294.961 C 267.120 298.445,267.121 298.446,268.311 298.548 C 269.584 298.656,269.891 298.027,269.200 296.725 C 269.035 296.413,268.502 295.127,268.017 293.868 C 266.796 290.697,266.688 290.422,266.148 289.125 C 265.886 288.496,265.342 287.097,264.938 286.018 C 264.535 284.939,264.085 283.761,263.939 283.401 C 263.793 283.042,263.592 282.527,263.492 282.257 C 260.094 273.055,258.913 271.792,257.241 275.572 M282.406 274.163 C 282.319 274.389,282.287 279.945,282.334 286.510 L 282.420 298.446 283.638 298.547 L 284.856 298.648 284.947 293.478 L 285.037 288.307 287.663 288.214 L 290.289 288.120 291.751 290.635 C 292.556 292.018,293.441 293.532,293.719 293.999 C 293.996 294.467,294.710 295.695,295.303 296.729 C 296.360 298.571,296.413 298.610,297.824 298.610 C 299.638 298.610,299.787 299.103,296.157 293.100 C 292.658 287.312,292.685 287.393,294.044 286.830 C 298.431 285.013,298.995 277.604,294.924 275.269 C 292.540 273.902,282.835 273.045,282.406 274.163 M312.674 286.162 L 312.674 298.610 313.986 298.610 L 315.298 298.610 315.212 286.263 L 315.127 273.917 313.900 273.815 L 312.674 273.714 312.674 286.162 M336.835 274.652 C 336.641 275.147,336.283 276.107,336.038 276.785 C 335.793 277.464,335.381 278.494,335.123 279.075 C 334.864 279.656,333.810 282.339,332.780 285.037 C 331.751 287.735,330.690 290.458,330.425 291.087 C 330.159 291.717,329.826 292.527,329.686 292.886 C 329.545 293.246,329.045 294.497,328.574 295.666 C 327.463 298.423,327.480 298.610,328.848 298.610 C 330.078 298.610,330.280 298.324,331.503 294.849 C 331.820 293.949,332.202 293.074,332.352 292.903 C 332.502 292.732,332.625 292.350,332.625 292.054 C 332.625 290.661,333.582 290.410,338.535 290.506 L 343.229 290.597 344.117 292.723 C 344.605 293.892,345.327 295.695,345.721 296.729 C 346.428 298.586,346.454 298.610,347.746 298.610 C 348.836 298.610,349.027 298.514,348.892 298.038 C 348.771 297.612,340.665 276.809,339.589 274.162 C 339.245 273.315,337.217 273.677,336.835 274.652 M178.294 276.831 C 179.957 277.526,180.680 278.773,180.680 280.948 C 180.680 284.498,179.192 285.619,174.244 285.799 L 170.728 285.927 170.728 281.203 C 170.728 278.604,170.838 276.363,170.973 276.222 C 171.358 275.820,176.995 276.288,178.294 276.831 M292.405 276.823 C 294.309 277.630,294.819 278.516,294.820 281.019 C 294.820 284.654,293.131 285.854,288.013 285.854 L 284.873 285.854 284.873 281.466 C 284.873 275.578,284.661 275.908,288.288 276.147 C 289.928 276.254,291.781 276.559,292.405 276.823 M260.322 280.294 C 260.727 281.464,261.515 283.645,262.073 285.141 C 263.319 288.477,263.337 288.459,258.809 288.466 C 254.637 288.472,254.560 288.330,256.428 284.056 C 256.672 283.497,258.158 279.132,258.591 277.702 C 258.829 276.915,259.502 277.922,260.322 280.294 M338.924 278.516 C 339.083 279.044,339.339 279.771,339.492 280.131 C 342.887 288.106,342.860 288.284,338.257 288.400 C 333.752 288.513,333.853 288.682,335.675 284.056 C 336.454 282.077,337.296 279.757,337.547 278.901 C 338.050 277.180,338.485 277.059,338.924 278.516 " stroke="none" fill="#4897af" fill-rule="evenodd"/><path id="path1" d="M254.620 27.656 C 238.613 30.052,225.901 38.830,219.124 52.167 L 217.628 55.110 197.339 55.195 L 177.049 55.279 176.200 53.723 C 159.190 22.515,109.384 25.227,92.847 58.262 C 87.632 68.679,86.869 83.479,90.943 95.176 C 91.639 97.173,91.901 97.719,93.398 100.283 L 93.993 101.303 92.647 104.045 C 81.072 127.619,93.604 156.743,120.413 168.568 C 121.683 169.128,124.784 170.088,127.228 170.678 C 146.751 175.390,168.469 165.444,177.125 147.826 L 178.729 144.563 198.435 144.563 L 218.141 144.563 218.963 146.185 C 223.722 155.575,233.055 163.896,243.009 167.621 C 243.818 167.924,244.775 168.291,245.135 168.436 C 246.902 169.149,250.916 170.092,254.821 170.712 C 257.650 171.160,267.032 171.153,269.791 170.699 C 273.661 170.062,277.525 169.158,279.477 168.431 C 292.189 163.698,301.524 155.700,306.953 144.890 C 309.123 140.570,309.799 138.639,310.960 133.448 C 311.662 130.308,311.758 118.547,311.104 115.781 C 310.870 114.791,310.521 113.320,310.329 112.510 C 309.344 108.363,308.244 105.337,306.158 101.036 C 304.542 97.703,304.545 98.152,306.109 94.812 C 308.040 90.685,309.195 86.974,310.423 80.948 C 310.924 78.493,310.952 66.998,310.462 65.413 C 310.267 64.783,309.931 63.459,309.715 62.469 C 304.708 39.546,279.903 23.872,254.620 27.656 M267.702 47.254 C 277.750 49.109,284.242 53.540,288.799 61.654 C 290.979 65.534,291.983 74.395,290.772 79.060 C 288.871 86.378,286.334 91.166,281.707 96.164 L 279.877 98.141 282.154 100.501 C 291.420 110.111,294.640 124.038,290.076 134.768 C 280.410 157.495,242.883 156.926,234.996 133.933 C 234.170 131.525,233.524 128.260,233.524 126.492 L 233.524 124.939 199.494 124.939 L 165.464 124.939 164.215 127.637 C 163.528 129.121,162.782 130.924,162.556 131.643 C 159.047 142.837,153.431 148.604,142.927 151.800 C 135.507 154.058,124.187 150.299,117.116 143.227 C 105.056 131.167,104.987 114.550,116.953 103.751 L 119.112 101.802 118.546 100.696 C 117.839 99.314,116.677 97.829,113.208 93.878 C 108.663 88.699,107.261 83.866,108.007 75.948 C 109.888 55.976,133.135 44.981,151.583 55.337 C 156.563 58.133,160.766 64.709,162.204 71.954 L 162.756 74.734 197.042 74.818 C 223.248 74.881,231.438 74.809,231.798 74.510 C 232.985 73.525,234.388 69.867,235.349 65.249 C 236.836 58.113,242.286 52.113,250.155 48.950 C 251.833 48.275,252.830 48.005,256.909 47.120 C 259.027 46.660,264.879 46.733,267.702 47.254 " stroke="none" fill="#f4945c" fill-rule="evenodd"/><path id="path3" d="M91.331 217.743 L 91.415 241.210 92.968 241.310 L 94.522 241.410 94.522 242.700 L 94.522 243.990 96.955 243.990 L 99.388 243.990 99.490 232.952 C 99.589 222.178,99.609 221.877,100.347 220.395 C 102.417 216.233,107.060 213.933,111.493 214.874 C 115.467 215.717,115.781 216.887,115.781 230.876 L 115.781 241.374 117.253 241.374 L 118.724 241.374 118.724 242.682 L 118.724 243.990 121.367 243.990 L 124.009 243.990 123.872 232.625 C 123.706 218.790,123.614 218.385,119.621 213.737 C 113.931 207.115,108.044 205.283,101.881 208.218 C 100.801 208.732,99.811 209.202,99.680 209.262 C 99.550 209.322,99.402 206.674,99.353 203.377 L 99.264 197.383 98.038 197.282 C 96.820 197.181,96.811 197.170,96.811 195.728 C 96.811 194.732,96.673 194.276,96.372 194.276 C 96.031 194.276,95.990 194.622,96.189 195.830 C 96.330 196.684,96.454 200.650,96.465 204.641 C 96.485 212.080,96.601 212.748,97.667 211.567 C 102.552 206.158,111.608 206.088,116.952 211.418 C 118.050 212.513,119.172 213.925,119.445 214.554 C 119.718 215.184,120.143 216.141,120.391 216.680 C 120.910 217.812,121.274 240.591,120.781 241.084 C 120.627 241.237,119.513 241.270,118.305 241.157 L 116.108 240.952 116.108 230.502 C 116.108 217.092,115.701 215.590,111.393 213.089 C 107.400 210.771,101.006 211.974,98.686 215.479 C 96.695 218.488,96.709 218.396,96.507 230.253 L 96.321 241.210 95.421 241.190 C 94.926 241.178,93.857 241.142,93.046 241.108 L 91.570 241.047 91.656 217.661 C 91.703 204.800,91.630 194.276,91.494 194.276 C 91.358 194.276,91.284 204.836,91.331 217.743 M279.967 194.596 C 280.515 194.942,280.928 240.543,280.389 241.083 C 280.243 241.229,279.058 241.259,277.756 241.150 L 275.388 240.952 275.388 238.546 C 275.388 235.842,275.241 235.696,274.083 237.257 C 269.096 243.980,257.238 243.077,250.823 235.487 C 249.895 234.388,248.243 230.957,248.237 230.114 C 248.234 229.741,248.076 229.215,247.885 228.945 C 247.298 228.113,247.885 230.847,248.653 232.520 C 253.360 242.767,266.817 247.746,274.921 242.239 C 276.968 240.848,278.332 241.025,278.332 242.682 L 278.332 243.990 280.948 243.990 L 283.565 243.990 283.565 220.624 L 283.565 197.258 282.175 197.157 C 280.792 197.057,280.784 197.050,280.684 195.666 C 280.608 194.616,280.449 194.278,280.030 194.281 C 279.554 194.286,279.545 194.330,279.967 194.596 M60.670 196.240 C 59.921 196.430,60.223 196.498,61.951 196.527 C 63.196 196.548,64.152 196.512,64.077 196.446 C 63.738 196.147,61.558 196.015,60.670 196.240 M55.928 196.906 C 55.586 197.135,55.983 197.170,57.236 197.020 C 58.226 196.901,59.096 196.751,59.171 196.685 C 59.501 196.397,56.368 196.610,55.928 196.906 M66.067 196.905 C 82.959 199.909,90.280 220.060,79.444 233.723 C 73.156 241.651,61.017 244.099,51.442 239.371 C 38.415 232.937,35.624 212.410,46.432 202.511 C 48.618 200.509,52.858 197.879,53.915 197.869 C 54.213 197.866,54.677 197.707,54.947 197.516 C 56.032 196.744,53.404 197.602,51.061 198.783 C 46.472 201.096,41.678 206.711,40.528 211.120 C 40.387 211.660,40.046 212.984,39.771 214.064 C 39.129 216.585,39.129 221.682,39.771 224.203 C 40.046 225.282,40.385 226.608,40.525 227.149 C 41.687 231.660,48.580 239.247,54.129 242.124 C 72.232 251.510,91.589 235.189,86.369 214.941 C 84.232 206.652,72.745 196.391,65.842 196.604 L 64.595 196.643 66.067 196.905 M366.780 196.999 C 366.683 197.251,366.658 198.323,366.723 199.382 L 366.843 201.308 366.905 199.264 L 366.966 197.220 369.955 197.220 L 372.944 197.220 372.751 203.516 C 372.333 217.170,371.859 228.376,371.687 228.653 C 371.588 228.814,370.803 228.945,369.943 228.945 L 368.380 228.945 367.996 223.467 C 367.785 220.454,367.596 216.149,367.578 213.900 C 367.559 211.652,367.438 208.340,367.309 206.541 L 367.074 203.271 367.017 205.887 C 366.926 210.063,367.679 227.727,367.982 228.536 C 368.206 229.132,368.510 229.272,369.575 229.272 C 370.792 229.272,370.892 229.340,370.896 230.172 C 370.904 231.647,371.284 231.939,373.049 231.827 L 374.652 231.725 374.873 228.291 C 375.053 225.488,375.509 213.770,375.891 202.126 L 375.961 200.000 374.652 199.836 C 373.375 199.677,373.340 199.638,373.181 198.201 L 373.017 196.729 369.986 196.635 C 367.626 196.562,366.917 196.642,366.780 196.999 M60.343 201.354 C 52.958 202.288,48.218 205.902,45.517 212.658 C 44.248 215.832,44.375 222.312,45.781 226.069 C 50.966 239.926,71.085 240.877,77.659 227.576 C 78.333 226.212,78.821 224.821,78.743 224.486 C 78.635 224.023,78.543 224.113,78.363 224.857 C 77.741 227.424,75.373 230.988,73.001 232.925 C 65.903 238.722,52.617 237.370,49.292 230.512 C 42.775 217.071,53.165 202.118,67.475 204.342 C 73.750 205.318,75.520 206.752,78.465 213.246 C 78.827 214.043,78.831 214.039,78.651 213.083 C 77.382 206.372,68.032 200.382,60.343 201.354 M154.792 207.613 C 153.852 207.932,152.364 208.741,151.485 209.411 C 149.458 210.957,149.141 210.946,149.141 209.333 C 149.141 207.670,148.483 207.296,145.782 207.425 L 143.745 207.522 143.660 224.448 L 143.575 241.374 145.050 241.374 L 146.525 241.374 146.525 242.682 L 146.525 243.990 148.949 243.990 L 151.372 243.990 151.488 232.788 C 151.599 221.932,151.626 221.536,152.352 219.951 C 155.185 213.767,163.602 212.590,165.379 218.129 C 165.667 219.029,165.761 219.125,165.787 218.548 C 165.830 217.614,164.831 215.660,163.702 214.470 C 160.297 210.879,153.809 210.976,151.009 214.660 C 148.927 217.400,148.993 216.952,148.814 229.599 L 148.651 241.210 147.751 241.190 C 147.257 241.178,146.190 241.142,145.380 241.108 L 143.908 241.047 143.908 224.351 L 143.908 207.656 146.116 207.753 L 148.324 207.850 148.527 209.743 C 148.781 212.102,148.963 212.287,149.967 211.204 C 150.996 210.094,153.541 208.340,154.123 208.340 C 154.369 208.340,154.740 208.171,154.948 207.963 C 155.727 207.184,161.525 207.505,163.532 208.439 C 165.320 209.270,167.633 211.231,168.641 212.769 C 169.362 213.870,169.450 213.836,171.554 211.630 C 176.676 206.260,184.276 206.004,189.382 211.030 C 193.208 214.796,193.622 216.720,193.622 230.738 C 193.622 242.360,193.894 241.416,190.601 241.241 C 189.475 241.181,189.178 241.195,189.943 241.271 C 191.320 241.408,191.333 241.422,191.333 242.700 L 191.333 243.990 193.807 243.990 L 196.282 243.990 196.179 231.971 L 196.075 219.951 195.051 217.789 C 189.895 206.907,178.750 203.745,171.519 211.112 L 169.531 213.138 167.886 211.312 C 164.515 207.568,159.280 206.089,154.792 207.613 M259.199 207.564 C 251.801 209.765,246.847 216.590,246.953 224.434 C 247.002 228.079,247.513 228.385,247.550 224.791 C 247.660 214.100,253.748 207.576,263.614 207.576 C 268.370 207.576,270.638 208.459,273.835 211.554 C 274.934 212.618,275.388 212.894,275.388 212.498 C 275.388 212.190,275.265 211.975,275.114 212.020 C 274.963 212.065,274.463 211.660,274.003 211.120 C 271.158 207.783,264.133 206.096,259.199 207.564 M299.101 207.544 C 295.320 208.715,292.076 210.986,289.779 214.068 C 289.101 214.978,288.083 217.219,288.265 217.401 C 288.348 217.484,288.679 216.987,289.002 216.298 C 295.253 202.958,316.327 205.235,319.781 219.624 C 322.642 231.543,315.222 241.701,303.655 241.701 C 292.489 241.701,284.908 231.266,287.781 219.852 C 288.021 218.897,288.135 218.034,288.033 217.932 C 287.932 217.831,287.763 218.170,287.658 218.686 C 287.553 219.202,287.325 220.076,287.151 220.628 C 283.176 233.275,298.915 247.989,312.020 243.876 C 323.485 240.277,327.228 223.978,318.661 214.956 C 317.682 213.926,316.634 212.786,316.331 212.424 C 312.777 208.173,304.573 205.850,299.101 207.544 M336.877 207.526 C 325.422 210.657,320.811 225.296,328.183 235.125 C 334.338 243.331,344.135 246.218,352.009 242.146 C 352.781 241.747,352.961 241.732,352.831 242.077 C 352.739 242.320,352.419 243.367,352.119 244.404 C 351.471 246.642,350.104 248.187,347.805 249.278 C 345.832 250.215,338.692 250.363,337.204 249.499 C 334.617 247.998,333.886 247.426,333.263 246.417 C 332.882 245.802,332.430 245.298,332.258 245.298 C 332.086 245.298,332.245 245.621,332.612 246.014 C 332.979 246.408,333.279 246.913,333.279 247.136 C 333.279 248.872,338.536 250.660,343.021 250.450 C 350.371 250.106,352.800 247.467,353.091 239.511 C 353.239 235.438,353.038 234.982,351.805 236.599 C 349.152 240.076,343.638 241.911,338.464 241.039 C 322.267 238.307,320.175 214.138,335.629 208.296 C 337.594 207.553,344.399 207.281,345.768 207.890 C 348.702 209.196,349.988 210.002,351.351 211.386 C 353.103 213.167,353.171 213.117,353.304 209.975 L 353.393 207.850 355.007 207.747 C 355.894 207.691,356.968 207.733,357.393 207.839 L 358.166 208.033 358.051 226.257 C 357.928 245.697,357.967 245.217,356.262 248.442 C 351.229 257.969,332.714 257.154,327.733 247.187 C 327.186 246.091,326.738 245.434,326.738 245.727 C 326.738 246.245,327.491 247.746,328.605 249.445 C 329.256 250.439,334.911 255.250,336.229 255.931 C 343.993 259.946,355.391 257.784,359.009 251.610 C 361.067 248.099,361.079 247.963,361.079 228.425 L 361.079 210.630 359.771 210.630 L 358.463 210.630 358.463 209.164 C 358.463 207.438,358.116 207.263,355.015 207.422 L 353.066 207.522 352.903 209.960 L 352.739 212.397 351.917 211.431 C 351.464 210.900,350.581 210.095,349.954 209.642 C 348.861 208.851,348.376 208.598,346.198 207.682 C 344.673 207.040,339.000 206.946,336.877 207.526 M26.633 207.791 C 26.542 208.029,26.516 209.684,26.575 211.471 L 26.682 214.718 26.751 211.190 L 26.819 207.661 29.845 207.756 L 32.870 207.850 32.963 211.202 L 33.056 214.554 31.326 214.554 L 29.595 214.554 29.713 216.038 L 29.831 217.521 32.986 217.428 L 36.141 217.334 36.238 214.719 C 36.373 211.063,36.240 210.691,34.749 210.567 C 33.576 210.470,33.520 210.410,33.418 209.162 C 33.360 208.445,33.139 207.748,32.927 207.614 C 32.218 207.162,26.816 207.315,26.633 207.791 M197.664 207.854 C 197.559 208.126,197.610 208.531,197.777 208.753 C 197.943 208.976,198.489 210.188,198.990 211.447 C 200.376 214.934,200.388 214.963,200.948 216.239 C 201.236 216.896,201.472 217.523,201.472 217.633 C 201.472 217.742,201.766 218.493,202.126 219.300 C 202.486 220.108,203.074 221.429,203.434 222.237 C 203.794 223.044,204.088 223.788,204.088 223.890 C 204.088 223.992,204.367 224.693,204.708 225.447 C 205.049 226.202,206.384 229.395,207.675 232.543 C 208.967 235.691,210.233 238.694,210.490 239.216 C 211.128 240.515,211.084 240.987,210.139 242.946 C 209.689 243.878,209.321 244.719,209.321 244.815 C 209.321 244.910,208.685 246.346,207.908 248.005 C 207.131 249.664,206.297 251.537,206.055 252.167 C 205.812 252.796,205.479 253.489,205.314 253.706 C 204.758 254.436,205.423 254.783,207.378 254.783 C 209.252 254.783,209.995 255.310,208.994 255.928 C 207.701 256.727,208.714 257.400,211.202 257.394 L 213.737 257.389 214.526 255.514 C 214.959 254.482,215.570 253.050,215.882 252.330 C 216.194 251.611,216.846 250.065,217.332 248.896 C 217.817 247.727,218.439 246.255,218.713 245.626 C 219.565 243.666,220.022 242.591,220.935 240.392 C 221.420 239.223,222.083 237.678,222.407 236.958 C 222.731 236.239,223.909 233.442,225.026 230.744 C 226.903 226.208,227.630 224.494,228.773 221.913 C 229.011 221.374,229.750 219.608,230.414 217.989 C 231.079 216.370,231.976 214.268,232.409 213.318 C 233.545 210.829,233.486 210.630,231.616 210.630 C 229.644 210.630,229.541 210.521,230.142 209.084 C 230.777 207.564,230.468 207.370,227.403 207.364 C 225.170 207.359,223.709 208.119,224.477 208.887 C 224.567 208.977,224.805 208.743,225.005 208.368 C 225.454 207.530,229.926 207.310,229.926 208.125 C 229.926 209.072,227.100 216.251,223.789 223.712 C 223.430 224.522,222.452 226.858,221.615 228.903 C 220.779 230.949,219.820 233.230,219.484 233.973 C 219.149 234.715,218.476 236.280,217.989 237.449 C 217.502 238.618,216.838 240.164,216.515 240.883 C 216.191 241.603,214.949 244.546,213.755 247.424 C 212.560 250.303,211.406 253.062,211.190 253.557 C 210.807 254.433,210.727 254.456,208.115 254.456 L 205.433 254.456 206.194 252.739 C 206.612 251.795,207.487 249.871,208.138 248.463 C 208.789 247.056,209.321 245.846,209.321 245.773 C 209.321 245.701,209.763 244.678,210.303 243.500 C 211.470 240.951,211.494 240.529,210.592 238.508 C 209.245 235.492,208.994 234.895,208.994 234.698 C 208.994 234.588,208.700 233.837,208.340 233.030 C 207.980 232.222,207.392 230.901,207.032 230.094 C 206.672 229.286,206.378 228.536,206.378 228.426 C 206.378 228.316,206.157 227.726,205.887 227.114 C 205.617 226.502,205.187 225.523,204.932 224.939 C 203.187 220.951,198.201 208.487,198.201 208.114 C 198.201 207.245,202.842 207.680,203.295 208.591 C 203.813 209.633,204.088 209.849,204.088 209.212 C 204.088 207.557,198.251 206.323,197.664 207.854 M223.578 210.717 C 222.315 213.721,222.161 214.103,221.766 215.209 C 221.246 216.662,220.966 217.364,220.299 218.881 C 220.004 219.552,219.553 220.696,219.297 221.423 C 219.040 222.150,218.589 223.294,218.294 223.964 C 217.301 226.224,217.193 226.486,216.174 229.099 C 215.615 230.533,215.072 231.845,214.967 232.015 C 214.862 232.185,213.689 229.540,212.361 226.138 C 205.984 209.800,206.346 210.630,205.584 210.630 C 205.193 210.630,204.697 210.453,204.481 210.237 C 204.004 209.760,203.969 210.104,204.416 210.879 C 204.596 211.192,205.634 213.729,206.723 216.517 C 207.811 219.305,208.826 221.881,208.978 222.240 C 209.866 224.343,210.316 225.466,211.269 227.964 C 212.978 232.441,213.624 233.997,213.896 234.288 C 214.267 234.684,214.887 233.336,218.686 223.876 C 220.563 219.199,222.261 215.004,222.459 214.554 C 222.657 214.105,222.928 213.442,223.063 213.083 C 223.197 212.723,223.568 211.801,223.888 211.035 C 224.207 210.269,224.399 209.572,224.314 209.487 C 224.229 209.402,223.898 209.956,223.578 210.717 M178.414 211.990 C 175.432 212.536,172.834 214.257,173.215 215.435 C 173.352 215.859,173.319 215.906,173.101 215.602 C 171.763 213.741,171.055 218.917,171.055 230.556 C 171.055 236.305,170.928 241.087,170.772 241.183 C 170.617 241.279,169.515 241.266,168.324 241.155 L 166.158 240.953 166.067 230.125 L 165.976 219.297 165.899 230.335 L 165.822 241.374 167.294 241.374 L 168.765 241.374 168.765 242.682 L 168.765 243.990 171.382 243.990 L 173.998 243.990 173.998 233.046 C 173.998 218.668,174.666 216.790,180.396 215.052 C 184.828 213.707,187.076 214.924,187.937 219.133 C 188.249 220.658,188.310 220.757,188.333 219.787 C 188.413 216.468,185.450 212.784,182.166 212.119 C 181.541 211.993,180.809 211.845,180.540 211.790 C 180.270 211.736,179.313 211.826,178.414 211.990 M261.974 212.100 C 249.167 214.280,249.135 234.670,261.934 237.146 C 267.030 238.132,272.269 235.546,274.412 230.987 C 275.179 229.356,275.678 227.145,275.094 227.964 C 274.902 228.234,274.742 228.698,274.739 228.996 C 274.723 230.715,271.740 234.515,269.526 235.638 C 263.381 238.751,256.905 236.566,255.747 230.987 C 254.071 222.916,257.961 216.259,265.168 214.865 C 268.379 214.243,272.281 215.152,273.118 216.716 C 273.348 217.146,273.659 217.498,273.808 217.498 C 273.958 217.498,274.080 217.784,274.080 218.133 C 274.080 218.482,274.211 218.848,274.370 218.947 C 274.530 219.045,274.769 219.680,274.903 220.356 C 275.036 221.033,275.213 221.399,275.297 221.169 C 275.617 220.288,274.202 217.332,272.638 215.618 C 269.853 212.565,266.242 211.374,261.974 212.100 M301.369 212.063 C 288.952 214.536,289.186 234.880,301.658 237.162 C 315.000 239.604,321.111 219.147,308.877 212.994 C 307.735 212.419,306.885 212.202,304.170 211.792 C 303.720 211.724,302.460 211.846,301.369 212.063 M339.493 212.075 C 325.562 214.604,327.591 236.795,341.754 236.795 C 355.764 236.795,358.023 214.320,344.235 212.110 C 343.516 211.995,342.633 211.853,342.273 211.795 C 341.913 211.737,340.662 211.863,339.493 212.075 M152.854 214.073 C 152.652 214.600,151.431 215.396,151.431 215.000 C 151.431 214.667,152.465 213.573,152.780 213.573 C 152.926 213.573,152.959 213.798,152.854 214.073 M78.981 219.156 C 78.981 221.657,79.082 223.447,79.206 223.135 C 79.512 222.363,79.527 215.467,79.224 214.990 C 79.090 214.780,78.981 216.655,78.981 219.156 M310.419 215.206 C 317.108 217.104,316.227 231.737,309.193 235.551 C 300.942 240.026,293.726 234.594,295.370 225.145 C 296.757 217.166,302.938 213.083,310.419 215.206 M347.833 215.040 C 355.041 216.738,354.680 231.505,347.343 235.083 C 343.018 237.192,337.158 236.729,334.848 234.095 C 332.964 231.947,332.509 225.077,334.025 221.692 C 336.451 216.278,341.914 213.646,347.833 215.040 M28.033 219.991 C 27.905 220.119,27.829 221.708,27.864 223.521 L 27.927 226.819 28.109 223.549 L 28.291 220.278 29.926 220.278 L 31.562 220.278 31.778 222.240 C 31.897 223.320,32.160 228.545,32.363 233.851 C 32.566 239.158,32.821 245.450,32.930 247.833 L 33.128 252.167 30.156 252.167 C 26.548 252.167,26.773 252.536,27.131 247.224 C 27.518 241.458,27.815 226.441,27.482 229.436 C 27.342 230.695,27.211 233.859,27.192 236.468 C 27.172 239.076,26.977 243.611,26.758 246.546 C 26.307 252.590,26.271 252.480,28.725 252.489 C 30.063 252.494,30.136 252.542,30.080 253.393 C 29.962 255.178,29.899 255.142,32.952 255.041 L 35.814 254.947 35.811 251.186 C 35.807 246.415,35.057 226.726,34.793 224.448 L 34.593 222.731 33.342 222.731 C 32.103 222.731,32.089 222.717,31.989 221.341 L 31.889 219.951 30.077 219.855 C 29.080 219.802,28.161 219.863,28.033 219.991 M275.388 224.530 C 275.388 226.119,275.470 227.337,275.570 227.237 C 275.670 227.137,275.752 225.919,275.752 224.530 C 275.752 223.141,275.670 221.922,275.570 221.822 C 275.470 221.723,275.388 222.941,275.388 224.530 M366.457 234.600 C 366.363 234.845,366.329 236.432,366.381 238.128 L 366.476 241.210 368.029 241.310 L 369.583 241.410 369.583 242.700 L 369.583 243.990 372.854 243.990 L 376.124 243.990 376.124 240.720 L 376.124 237.449 374.834 237.449 L 373.544 237.449 373.444 235.895 L 373.344 234.342 369.986 234.249 C 367.390 234.176,366.589 234.256,366.457 234.600 M372.982 235.023 C 373.316 235.891,373.203 240.994,372.846 241.215 C 372.662 241.329,371.190 241.318,369.575 241.192 L 366.639 240.962 366.639 238.251 C 366.639 234.378,366.529 234.505,369.910 234.505 C 372.229 234.505,372.822 234.605,372.982 235.023 M257.809 273.635 C 257.584 273.730,257.400 273.944,257.400 274.111 C 257.400 274.278,257.125 275.038,256.790 275.801 C 256.454 276.563,255.777 278.217,255.286 279.477 C 254.224 282.198,254.017 282.716,253.394 284.219 C 252.347 286.743,252.086 287.518,252.231 287.663 C 252.315 287.747,252.943 286.381,253.627 284.627 C 254.311 282.874,255.086 280.924,255.351 280.294 C 255.615 279.665,255.948 278.855,256.090 278.496 C 258.906 271.391,259.613 271.750,263.492 282.257 C 263.592 282.527,263.793 283.042,263.939 283.401 C 264.085 283.761,264.535 284.939,264.938 286.018 C 265.342 287.097,265.886 288.496,266.148 289.125 C 266.688 290.422,266.796 290.697,268.017 293.868 C 268.502 295.127,269.035 296.413,269.200 296.725 C 269.891 298.027,269.584 298.656,268.311 298.548 C 267.121 298.446,267.120 298.445,265.760 294.961 C 263.847 290.061,264.380 290.400,258.752 290.507 L 253.983 290.597 253.053 292.837 C 252.541 294.068,252.202 295.156,252.300 295.255 C 252.398 295.353,252.569 295.154,252.679 294.814 C 252.902 294.127,253.385 292.945,253.901 291.823 C 254.229 291.111,254.386 291.087,258.887 291.087 C 264.196 291.087,263.793 290.874,265.083 294.358 C 265.583 295.707,266.119 296.951,266.275 297.122 C 266.430 297.293,266.558 297.682,266.558 297.986 C 266.558 298.649,267.205 298.937,268.691 298.937 C 270.367 298.937,270.380 298.605,268.846 294.849 C 268.699 294.489,268.496 293.974,268.395 293.704 C 268.294 293.434,266.474 288.798,264.352 283.401 L 260.493 273.590 259.355 273.526 C 258.729 273.491,258.034 273.540,257.809 273.635 M336.959 273.818 C 336.766 274.052,336.358 274.906,336.052 275.715 C 335.747 276.525,335.303 277.629,335.067 278.168 C 334.166 280.222,333.221 282.962,333.363 283.104 C 333.445 283.186,333.765 282.550,334.075 281.692 C 334.384 280.833,334.776 279.836,334.944 279.477 C 335.112 279.117,335.670 277.719,336.184 276.370 C 337.084 274.005,337.159 273.913,338.272 273.817 L 339.426 273.718 341.775 279.704 C 343.068 282.997,344.649 287.056,345.289 288.724 C 345.930 290.393,346.530 291.682,346.622 291.590 C 346.715 291.497,346.557 290.868,346.271 290.191 C 345.985 289.515,345.287 287.711,344.718 286.182 C 344.150 284.652,343.495 282.960,343.262 282.420 C 343.029 281.881,342.505 280.556,342.099 279.477 C 340.050 274.037,339.788 273.612,338.425 273.491 C 337.796 273.436,337.158 273.578,336.959 273.818 M51.022 273.897 C 51.022 274.091,52.621 278.654,52.977 279.477 C 53.133 279.836,53.506 280.867,53.806 281.766 C 54.105 282.666,54.485 283.657,54.649 283.969 C 54.813 284.282,54.947 284.762,54.947 285.037 C 54.947 285.312,55.085 285.792,55.254 286.104 C 55.422 286.417,55.949 287.776,56.425 289.125 C 56.900 290.474,57.415 291.872,57.569 292.232 C 57.724 292.592,58.242 294.064,58.721 295.503 C 59.839 298.856,59.959 298.990,61.765 298.871 L 63.243 298.774 64.277 295.830 C 64.845 294.211,65.395 292.666,65.498 292.396 C 66.420 289.981,66.787 288.755,66.635 288.603 C 66.535 288.503,66.358 288.764,66.240 289.182 C 66.122 289.601,65.900 290.237,65.746 290.597 C 65.591 290.957,65.073 292.355,64.593 293.704 C 62.757 298.864,63.030 298.446,61.492 298.446 C 60.148 298.446,60.102 298.410,59.635 296.975 C 59.027 295.108,57.599 291.127,57.229 290.270 C 57.074 289.910,56.412 288.070,55.759 286.182 C 54.127 281.461,53.048 278.459,52.305 276.571 C 51.959 275.693,51.676 274.699,51.676 274.364 C 51.676 274.028,51.529 273.753,51.349 273.753 C 51.169 273.753,51.022 273.818,51.022 273.897 M54.120 274.065 C 54.318 274.385,56.578 280.626,57.441 283.238 C 57.709 284.047,57.997 284.915,58.081 285.165 C 58.164 285.416,58.308 285.546,58.400 285.454 C 58.559 285.295,57.849 282.827,57.246 281.439 C 56.965 280.792,55.720 277.354,54.908 274.980 C 54.677 274.305,54.362 273.753,54.208 273.753 C 54.053 273.753,54.014 273.893,54.120 274.065 M68.357 274.248 C 68.357 274.520,68.216 274.999,68.045 275.311 C 67.873 275.623,67.346 277.056,66.873 278.496 C 66.400 279.935,65.885 281.406,65.729 281.766 C 65.573 282.126,65.228 283.083,64.962 283.892 C 64.695 284.702,64.045 286.615,63.517 288.144 C 62.989 289.673,62.365 291.554,62.130 292.324 C 61.609 294.037,61.436 293.872,60.490 290.760 C 60.080 289.411,59.642 288.160,59.517 287.980 C 59.391 287.800,59.188 287.231,59.064 286.715 C 58.941 286.199,58.756 285.861,58.655 285.963 C 58.553 286.064,58.834 287.222,59.281 288.536 C 59.727 289.849,60.286 291.586,60.522 292.396 C 61.319 295.124,61.742 295.196,62.450 292.723 C 63.115 290.400,65.742 282.708,67.140 278.986 C 68.247 276.042,68.913 273.753,68.664 273.753 C 68.495 273.753,68.357 273.976,68.357 274.248 M71.183 275.403 C 70.874 276.384,70.491 277.482,70.332 277.841 C 70.174 278.201,69.652 279.599,69.173 280.948 C 68.693 282.298,68.029 284.137,67.697 285.037 C 66.755 287.586,66.601 288.257,67.013 288.002 C 67.212 287.879,67.375 287.620,67.375 287.427 C 67.375 287.085,69.418 281.116,69.984 279.804 C 70.908 277.662,71.991 274.353,71.878 274.015 C 71.806 273.798,71.493 274.422,71.183 275.403 M83.620 273.971 C 83.199 274.392,83.367 298.118,83.794 298.545 C 84.208 298.959,96.575 299.133,97.602 298.739 C 98.221 298.501,98.308 296.640,97.727 296.059 C 97.455 295.787,95.750 295.666,92.167 295.666 L 86.999 295.666 86.999 291.423 L 86.999 287.179 92.150 287.089 L 97.302 286.999 97.302 285.691 L 97.302 284.383 92.232 284.219 L 87.163 284.056 87.070 280.376 L 86.978 276.697 92.350 276.697 C 98.220 276.697,98.119 276.731,98.119 274.708 C 98.119 274.143,97.946 273.753,97.694 273.753 C 97.401 273.753,97.311 274.108,97.403 274.898 L 97.537 276.043 92.472 276.043 C 86.282 276.043,86.620 275.769,86.743 280.668 L 86.836 284.383 91.823 284.473 L 96.811 284.563 96.811 285.691 L 96.811 286.819 91.823 286.909 L 86.836 286.999 86.836 291.578 L 86.836 296.157 92.150 296.247 L 97.465 296.337 97.465 297.473 L 97.465 298.610 90.753 298.610 L 84.040 298.610 84.130 286.181 C 84.179 279.346,84.133 273.753,84.028 273.753 C 83.923 273.753,83.739 273.851,83.620 273.971 M108.803 273.971 C 108.531 274.243,108.520 275.492,108.784 276.179 C 108.949 276.609,109.613 276.697,112.709 276.697 L 116.435 276.697 116.435 287.618 C 116.435 299.488,116.348 298.937,118.234 298.937 C 120.120 298.937,120.033 299.488,120.033 287.618 L 120.033 276.697 123.794 276.697 C 126.585 276.697,127.555 276.591,127.556 276.288 C 127.557 275.773,120.429 275.905,119.795 276.431 C 119.473 276.698,119.379 279.261,119.379 287.713 L 119.379 298.649 118.152 298.548 L 116.926 298.446 116.762 287.326 L 116.599 276.206 112.837 276.043 L 109.076 275.879 109.124 274.816 C 109.175 273.692,109.150 273.625,108.803 273.971 M139.657 286.147 C 139.657 297.146,139.715 298.562,140.174 298.739 C 140.965 299.042,153.170 298.965,153.661 298.653 C 153.932 298.482,154.054 297.904,153.988 297.105 L 153.884 295.830 148.569 295.740 L 143.254 295.650 143.254 291.415 L 143.254 287.180 148.242 287.089 L 153.230 286.999 153.230 285.691 L 153.230 284.383 148.324 284.219 L 143.418 284.056 143.325 280.384 L 143.233 276.713 148.558 276.623 L 153.884 276.533 153.984 275.143 C 154.040 274.379,153.965 273.753,153.818 273.753 C 153.671 273.753,153.552 274.231,153.554 274.816 L 153.557 275.879 148.510 275.970 C 142.268 276.082,142.600 275.827,142.600 280.492 C 142.600 284.902,142.048 284.514,148.487 284.630 L 152.903 284.710 152.903 285.691 L 152.903 286.672 147.833 286.836 L 142.764 286.999 142.673 291.285 C 142.560 296.624,142.166 296.280,148.510 296.393 L 153.557 296.484 153.557 297.465 L 153.557 298.446 146.852 298.446 L 140.147 298.446 140.147 286.100 C 140.147 279.309,140.037 273.753,139.902 273.753 C 139.767 273.753,139.657 279.330,139.657 286.147 M167.675 273.971 C 167.555 274.091,167.457 279.592,167.457 286.196 C 167.457 299.534,167.376 299.063,169.642 298.876 L 170.891 298.774 171.055 293.704 L 171.218 288.635 173.508 288.542 C 176.018 288.440,175.806 288.301,177.333 291.051 C 181.425 298.418,181.835 298.925,183.709 298.932 C 185.749 298.939,185.707 298.621,183.098 294.301 C 178.651 286.935,178.822 287.336,179.997 287.042 C 186.465 285.418,184.462 274.375,177.611 273.891 L 175.797 273.763 177.803 274.186 C 184.203 275.536,185.772 283.672,180.182 286.524 C 178.476 287.394,178.454 287.315,182.033 293.254 L 185.162 298.446 183.808 298.548 C 182.530 298.644,181.521 298.223,181.521 297.594 C 181.521 297.438,181.043 296.537,180.458 295.590 C 179.202 293.555,178.790 292.854,177.269 290.160 L 176.124 288.132 173.508 288.220 L 170.891 288.307 170.728 293.377 L 170.564 298.446 169.330 298.548 L 168.096 298.650 168.185 286.202 C 168.234 279.355,168.189 273.753,168.084 273.753 C 167.979 273.753,167.795 273.851,167.675 273.971 M198.359 286.263 L 198.365 298.774 199.469 298.879 C 200.077 298.937,200.698 298.860,200.851 298.708 C 201.003 298.555,200.545 298.486,199.832 298.554 L 198.536 298.678 198.444 286.215 L 198.353 273.753 198.359 286.263 M216.190 286.147 C 216.190 299.710,216.082 298.993,218.097 298.894 C 218.825 298.858,218.779 298.817,217.825 298.649 L 216.680 298.446 216.680 286.100 C 216.680 279.309,216.570 273.753,216.435 273.753 C 216.300 273.753,216.190 279.330,216.190 286.147 M220.057 274.510 C 220.449 274.926,220.769 275.386,220.769 275.531 C 220.769 275.677,221.406 276.698,222.185 277.800 C 222.964 278.902,225.560 282.862,227.954 286.600 C 230.348 290.337,232.378 293.324,232.464 293.237 C 232.551 293.151,231.169 290.860,229.394 288.146 C 227.618 285.433,226.015 282.961,225.832 282.653 C 224.161 279.841,219.957 273.753,219.688 273.753 C 219.500 273.753,219.666 274.094,220.057 274.510 M232.870 283.375 C 232.870 288.667,232.788 293.210,232.688 293.472 C 232.587 293.733,232.707 294.024,232.954 294.119 C 233.331 294.263,233.379 292.679,233.257 284.313 C 233.136 276.062,233.189 274.286,233.563 274.049 C 233.921 273.822,233.896 273.762,233.442 273.758 C 232.910 273.753,232.870 274.427,232.870 283.375 M235.891 286.100 L 235.814 298.610 234.260 298.594 L 232.706 298.577 228.920 292.788 C 226.837 289.604,223.893 285.053,222.378 282.673 C 219.276 277.802,218.787 277.349,218.845 279.405 C 218.880 280.664,218.903 280.699,219.103 279.804 C 219.317 278.841,219.358 278.878,221.272 281.766 C 222.344 283.385,223.332 284.759,223.467 284.819 C 223.602 284.879,223.712 285.064,223.712 285.231 C 223.712 285.398,224.203 286.232,224.803 287.086 C 225.403 287.939,225.955 288.784,226.029 288.963 C 226.104 289.142,227.596 291.460,229.344 294.113 L 232.523 298.937 234.179 298.937 C 236.317 298.937,236.163 300.013,236.059 285.853 L 235.969 273.590 235.891 286.100 M281.930 286.175 L 281.930 298.598 282.714 298.794 C 284.984 299.364,285.020 299.291,285.200 293.704 L 285.364 288.635 287.687 288.539 L 290.009 288.444 292.102 291.961 C 293.253 293.895,294.253 295.630,294.325 295.817 C 295.043 297.692,296.403 298.937,297.726 298.932 C 300.022 298.924,300.009 298.748,297.411 294.522 C 296.083 292.363,294.903 290.376,294.788 290.106 C 294.673 289.836,294.299 289.212,293.957 288.719 C 293.343 287.832,293.405 287.163,294.101 287.163 C 295.540 287.163,297.999 283.644,297.917 281.702 C 297.889 281.031,297.793 281.195,297.559 282.316 C 297.189 284.089,295.535 286.213,294.044 286.830 C 292.685 287.393,292.658 287.312,296.157 293.100 C 299.787 299.103,299.638 298.610,297.824 298.610 C 296.413 298.610,296.360 298.571,295.303 296.729 C 294.710 295.695,293.996 294.467,293.719 293.999 C 293.441 293.532,292.556 292.018,291.751 290.635 L 290.289 288.120 287.663 288.214 L 285.037 288.307 284.947 293.478 L 284.856 298.648 283.638 298.547 L 282.420 298.446 282.420 286.100 C 282.420 279.309,282.310 273.753,282.175 273.753 C 282.040 273.753,281.930 279.343,281.930 286.175 M291.920 274.181 C 295.382 274.912,296.744 276.078,297.533 278.986 L 297.932 280.458 297.819 279.122 C 297.576 276.259,295.106 274.132,291.742 273.892 L 289.943 273.763 291.920 274.181 M312.504 286.263 L 312.510 298.774 313.982 298.774 L 315.454 298.774 315.539 286.263 C 315.587 279.383,315.513 273.753,315.376 273.753 C 315.239 273.753,315.167 279.346,315.216 286.181 L 315.306 298.610 313.994 298.610 L 312.682 298.610 312.590 286.181 L 312.498 273.753 312.504 286.263 M170.973 276.222 C 170.838 276.363,170.728 278.604,170.728 281.203 L 170.728 285.927 174.244 285.799 C 179.192 285.619,180.680 284.498,180.680 280.948 C 180.680 278.773,179.957 277.526,178.294 276.831 C 176.995 276.288,171.358 275.820,170.973 276.222 M285.089 276.514 C 284.971 276.824,284.873 279.052,284.873 281.466 L 284.873 285.854 288.013 285.854 C 293.131 285.854,294.820 284.654,294.820 281.019 C 294.819 277.493,293.471 276.487,288.288 276.147 C 285.658 275.974,285.280 276.017,285.089 276.514 M178.009 277.105 C 179.942 278.186,180.213 278.657,180.202 280.924 C 180.185 284.375,179.146 285.163,174.244 285.441 L 171.055 285.623 171.055 281.160 L 171.055 276.697 174.166 276.697 C 176.047 276.697,177.567 276.858,178.009 277.105 M292.293 277.185 C 294.011 278.042,294.424 278.759,294.424 280.890 C 294.424 284.380,293.165 285.301,288.345 285.340 L 285.364 285.364 285.273 281.030 L 285.181 276.697 288.248 276.697 C 290.311 276.697,291.634 276.856,292.293 277.185 M258.591 277.702 C 258.158 279.132,256.672 283.497,256.428 284.056 C 254.560 288.330,254.637 288.472,258.809 288.466 C 263.337 288.459,263.319 288.477,262.073 285.141 C 261.515 283.645,260.727 281.464,260.322 280.294 C 259.502 277.922,258.829 276.915,258.591 277.702 M337.546 278.904 C 337.296 279.759,336.454 282.077,335.675 284.056 C 333.853 288.682,333.752 288.513,338.257 288.400 C 342.697 288.288,342.637 288.382,341.028 284.120 C 340.404 282.466,339.786 280.818,339.655 280.458 C 339.524 280.098,339.354 279.969,339.278 280.172 C 339.201 280.374,339.734 282.033,340.461 283.858 C 342.280 288.425,342.417 288.144,338.368 288.144 C 334.873 288.144,334.332 287.956,334.876 286.931 C 335.355 286.026,336.103 284.191,336.579 282.747 C 336.816 282.028,337.127 281.299,337.270 281.128 C 337.414 280.957,337.531 280.570,337.531 280.266 C 337.531 279.963,337.734 279.323,337.982 278.845 L 338.433 277.975 338.676 278.889 C 338.810 279.392,338.980 279.642,339.054 279.444 C 339.226 278.983,338.611 277.351,338.264 277.351 C 338.119 277.351,337.796 278.050,337.546 278.904 M260.137 280.948 C 260.461 281.938,260.845 283.042,260.990 283.401 C 262.994 288.362,263.069 288.197,258.845 288.075 C 255.335 287.973,255.247 287.907,256.078 286.018 C 256.237 285.658,256.755 284.260,257.230 282.911 C 257.706 281.562,258.233 280.202,258.401 279.890 C 258.570 279.578,258.708 278.993,258.708 278.591 C 258.708 277.513,259.372 278.608,260.137 280.948 M332.613 284.419 C 331.764 286.666,328.903 293.966,328.462 295.012 C 326.976 298.536,326.970 298.574,327.854 298.796 C 329.970 299.327,330.323 299.014,331.766 295.330 C 332.508 293.436,333.234 291.706,333.380 291.487 C 333.568 291.203,335.004 291.087,338.330 291.087 L 343.016 291.087 343.576 292.267 C 343.884 292.916,344.458 294.351,344.851 295.456 C 345.969 298.594,346.229 298.937,347.491 298.937 C 349.779 298.937,349.798 298.672,347.842 294.195 C 347.606 293.655,347.320 292.935,347.206 292.594 C 347.093 292.254,346.922 292.053,346.827 292.148 C 346.732 292.243,347.177 293.617,347.816 295.202 C 349.245 298.744,349.249 298.610,347.708 298.610 C 346.462 298.610,346.423 298.573,345.721 296.729 C 345.327 295.695,344.605 293.892,344.117 292.723 L 343.229 290.597 338.535 290.506 C 333.582 290.410,332.625 290.661,332.625 292.054 C 332.625 292.350,332.502 292.732,332.352 292.903 C 332.202 293.074,331.820 293.949,331.503 294.849 C 330.280 298.324,330.078 298.610,328.848 298.610 C 328.163 298.610,327.718 298.449,327.718 298.201 C 327.717 297.826,328.698 295.255,330.369 291.251 C 331.814 287.788,333.274 283.778,333.138 283.642 C 333.046 283.550,332.809 283.899,332.613 284.419 M219.272 291.415 C 219.272 295.282,219.320 296.864,219.377 294.930 C 219.435 292.997,219.435 289.832,219.377 287.899 C 219.320 285.965,219.272 287.547,219.272 291.415 M251.649 288.669 C 251.535 289.010,251.252 289.730,251.020 290.270 C 249.506 293.783,247.902 298.324,248.075 298.605 C 248.489 299.273,250.751 298.987,251.260 298.201 C 251.888 297.231,252.309 295.540,251.853 295.822 C 251.666 295.937,251.513 296.237,251.513 296.488 C 251.513 297.815,250.758 298.610,249.498 298.610 C 248.807 298.610,248.242 298.558,248.242 298.494 C 248.242 298.430,249.129 296.129,250.214 293.380 C 251.299 290.630,252.112 288.307,252.021 288.216 C 251.930 288.125,251.762 288.329,251.649 288.669 " stroke="none" fill="#a6d5dd" fill-rule="evenodd"/></g></svg>